<svg width="20" height="20" viewBox="0 0 20 20" fill="none" xmlns="http://www.w3.org/2000/svg">
<path d="M1 8.99995H19C19.6 8.99995 20 9.39995 20 9.99995C20 10.6 19.6 11 19 11H1C0.4 11 0 10.6 0 9.99995C0 9.39995 0.4 8.99995 1 8.99995ZM10.7 0.3L19.7 9.1999C20.1 9.5999 20.1 10.2999 19.7 10.6999C19.3 11.0999 18.6 11.0999 18.2 10.6999L9.29999 1.6999C8.89999 1.2999 8.89999 0.7 9.29999 0.3C9.69999 -0.1 10.3 -0.1 10.7 0.3ZM18.3 9.3L9.29999 18.1999C8.89999 18.5999 8.89999 19.2999 9.29999 19.6999C9.69999 20.0999 10.4 20.0999 10.8 19.6999L19.7 10.6999C20.1 10.2999 20.1 9.7 19.7 9.3C19.3 8.9 18.7 8.9 18.3 9.3Z" fill="white"/>
</svg>
